<svg xmlns="http://www.w3.org/2000/svg" viewBox="0 0 400 520" font-family="monospace">
  <defs>
    <linearGradient id="badge-bg" x1="0" y1="0" x2="0" y2="1">
      <stop offset="0%" stop-color="#1a1a2e"/>
      <stop offset="100%" stop-color="#0f0f1a"/>
    </linearGradient>
  </defs>

  <rect width="400" height="520" fill="#0a0a0f" rx="16"/>

  <text x="200" y="36" fill="#ff69b4" font-size="18" font-weight="bold" text-anchor="middle">S&amp;B Control — Petal Map</text>

  <!-- Badge outline -->
  <rect x="80" y="55" width="240" height="440" rx="24" fill="url(#badge-bg)" stroke="#333" stroke-width="2"/>

  <!-- Screen -->
  <rect x="105" y="80" width="190" height="190" rx="4" fill="#111" stroke="#444" stroke-width="1"/>
  <text x="200" y="140" fill="#0f0" font-size="48" text-anchor="middle">198.5</text>
  <text x="235" y="125" fill="#888" font-size="14">°C</text>
  <text x="200" y="175" fill="#ccc" font-size="18" text-anchor="middle">Target: 200°C</text>
  <text x="200" y="205" fill="#ff8c00" font-size="16" text-anchor="middle">HEATER ON</text>
  <text x="200" y="225" fill="#555" font-size="12" text-anchor="middle">-10  -5  ON/OFF  +5  +10</text>

  <!-- Petals (top row) -->
  <!-- Petal 0 -->
  <circle cx="120" cy="290" r="28" fill="#222" stroke="#ff4444" stroke-width="2"/>
  <text x="120" y="295" fill="#ff4444" font-size="16" font-weight="bold" text-anchor="middle">-10</text>

  <!-- Petal 1 -->
  <circle cx="175" cy="290" r="28" fill="#222" stroke="#ff8844" stroke-width="2"/>
  <text x="175" y="295" fill="#ff8844" font-size="16" font-weight="bold" text-anchor="middle">-5</text>

  <!-- Petal 2 (center) -->
  <circle cx="230" cy="290" r="32" fill="#222" stroke="#00ff88" stroke-width="3"/>
  <text x="230" y="286" fill="#00ff88" font-size="12" font-weight="bold" text-anchor="middle">ON</text>
  <text x="230" y="300" fill="#00ff88" font-size="12" font-weight="bold" text-anchor="middle">OFF</text>

  <!-- Petal 3 -->
  <circle cx="285" cy="290" r="28" fill="#222" stroke="#44aaff" stroke-width="2"/>
  <text x="285" y="295" fill="#44aaff" font-size="16" font-weight="bold" text-anchor="middle">+5</text>

  <!-- Petal 4 -->
  <circle cx="340" cy="290" r="28" fill="#222" stroke="#4444ff" stroke-width="2"/>
  <text x="340" y="295" fill="#4444ff" font-size="16" font-weight="bold" text-anchor="middle">+10</text>

  <!-- Labels -->
  <text x="230" y="340" fill="#888" font-size="11" text-anchor="middle">TOUCH PETALS TO CONTROL</text>

  <!-- Buttons -->
  <!-- App button -->
  <circle cx="155" cy="400" r="22" fill="#222" stroke="#ff69b4" stroke-width="2"/>
  <text x="155" y="397" fill="#ff69b4" font-size="9" text-anchor="middle">APP</text>
  <text x="155" y="408" fill="#ff69b4" font-size="9" text-anchor="middle">SCAN</text>

  <!-- OS button -->
  <circle cx="245" cy="400" r="22" fill="#222" stroke="#888" stroke-width="2"/>
  <text x="245" y="397" fill="#888" font-size="9" text-anchor="middle">OS</text>
  <text x="245" y="408" fill="#888" font-size="9" text-anchor="middle">EXIT</text>

  <!-- Legend -->
  <rect x="90" y="435" width="220" height="50" rx="6" fill="#151520" stroke="#333" stroke-width="1"/>
  <circle cx="110" cy="450" r="5" fill="#00ff88"/>
  <text x="120" y="454" fill="#aaa" font-size="10">= at target temp</text>
  <circle cx="210" cy="450" r="5" fill="#ff8c00"/>
  <text x="220" y="454" fill="#aaa" font-size="10">= heating</text>
  <circle cx="310" cy="450" r="5" fill="#4488ff"/>
  <text x="320" y="454" fill="#aaa" font-size="10">= cooling</text>
  <text x="200" y="475" fill="#666" font-size="10" text-anchor="middle">LED ring matches temp color</text>
</svg>
