<svg xmlns="http://www.w3.org/2000/svg" viewBox="0 0 400 600" font-family="monospace">
  <defs>
    <linearGradient id="badge-bg" x1="0" y1="0" x2="0" y2="1">
      <stop offset="0%" stop-color="#1a1a2e"/>
      <stop offset="100%" stop-color="#0f0f1a"/>
    </linearGradient>
    <marker id="arr" markerWidth="6" markerHeight="6" refX="6" refY="3" orient="auto">
      <path d="M0,0 L6,3 L0,6 Z" fill="#555"/>
    </marker>
  </defs>

  <rect width="400" height="600" fill="#0a0a0f" rx="16"/>

  <text x="200" y="36" fill="#ff69b4" font-size="18" font-weight="bold" text-anchor="middle">S&amp;B Control — Controls</text>

  <!-- Badge outline -->
  <rect x="80" y="55" width="240" height="490" rx="24" fill="url(#badge-bg)" stroke="#333" stroke-width="2"/>

  <!-- Screen -->
  <rect x="105" y="80" width="190" height="190" rx="4" fill="#111" stroke="#444" stroke-width="1"/>
  <text x="200" y="135" fill="#0f0" font-size="48" text-anchor="middle">198.5</text>
  <text x="240" y="120" fill="#888" font-size="14">°C</text>
  <text x="200" y="170" fill="#ccc" font-size="18" text-anchor="middle">Target: 200°C</text>
  <text x="200" y="200" fill="#ff8c00" font-size="16" text-anchor="middle">HEATER ON</text>
  <text x="200" y="225" fill="#555" font-size="11" text-anchor="middle">petals: -10  -5  ON/OFF  +5  +10</text>

  <!-- Label: TOP PETALS -->
  <text x="200" y="293" fill="#888" font-size="10" text-anchor="middle">— TOP PETALS (touch to control) —</text>

  <!-- Top Petals (0, 2, 4, 6, 8) -->
  <!-- Petal 0 -->
  <circle cx="88" cy="320" r="26" fill="#222" stroke="#ff4444" stroke-width="2"/>
  <text x="88" y="317" fill="#ff4444" font-size="9" text-anchor="middle">p0</text>
  <text x="88" y="330" fill="#ff4444" font-size="14" font-weight="bold" text-anchor="middle">-10</text>

  <!-- Petal 2 -->
  <circle cx="148" cy="320" r="26" fill="#222" stroke="#ff8844" stroke-width="2"/>
  <text x="148" y="317" fill="#ff8844" font-size="9" text-anchor="middle">p2</text>
  <text x="148" y="330" fill="#ff8844" font-size="14" font-weight="bold" text-anchor="middle">-5</text>

  <!-- Petal 4 (center - heater toggle) -->
  <circle cx="208" cy="320" r="30" fill="#222" stroke="#00ff88" stroke-width="3"/>
  <text x="208" y="315" fill="#00ff88" font-size="9" text-anchor="middle">p4</text>
  <text x="208" y="328" fill="#00ff88" font-size="12" font-weight="bold" text-anchor="middle">ON</text>
  <text x="208" y="340" fill="#00ff88" font-size="12" font-weight="bold" text-anchor="middle">OFF</text>

  <!-- Petal 6 -->
  <circle cx="268" cy="320" r="26" fill="#222" stroke="#44aaff" stroke-width="2"/>
  <text x="268" y="317" fill="#44aaff" font-size="9" text-anchor="middle">p6</text>
  <text x="268" y="330" fill="#44aaff" font-size="14" font-weight="bold" text-anchor="middle">+5</text>

  <!-- Petal 8 -->
  <circle cx="328" cy="320" r="26" fill="#222" stroke="#4444ff" stroke-width="2"/>
  <text x="328" y="317" fill="#4444ff" font-size="9" text-anchor="middle">p8</text>
  <text x="328" y="330" fill="#4444ff" font-size="14" font-weight="bold" text-anchor="middle">+10</text>

  <!-- Divider -->
  <line x1="100" y1="358" x2="300" y2="358" stroke="#333" stroke-width="1"/>
  <text x="200" y="375" fill="#888" font-size="10" text-anchor="middle">— BOTTOM PETALS (unused) —</text>

  <!-- Bottom Petals (1, 3, 5, 7, 9) - shown dimmed -->
  <circle cx="88" cy="400" r="20" fill="#151515" stroke="#333" stroke-width="1"/>
  <text x="88" y="404" fill="#444" font-size="10" text-anchor="middle">p1</text>
  <circle cx="148" cy="400" r="20" fill="#151515" stroke="#333" stroke-width="1"/>
  <text x="148" y="404" fill="#444" font-size="10" text-anchor="middle">p3</text>
  <circle cx="208" cy="400" r="20" fill="#151515" stroke="#333" stroke-width="1"/>
  <text x="208" y="404" fill="#444" font-size="10" text-anchor="middle">p5</text>
  <circle cx="268" cy="400" r="20" fill="#151515" stroke="#333" stroke-width="1"/>
  <text x="268" y="404" fill="#444" font-size="10" text-anchor="middle">p7</text>
  <circle cx="328" cy="400" r="20" fill="#151515" stroke="#333" stroke-width="1"/>
  <text x="328" y="404" fill="#444" font-size="10" text-anchor="middle">p9</text>

  <!-- Shoulder buttons -->
  <text x="200" y="445" fill="#888" font-size="10" text-anchor="middle">— SHOULDER BUTTONS —</text>

  <!-- App button (left shoulder) -->
  <rect x="70" y="455" width="100" height="40" rx="8" fill="#222" stroke="#ff69b4" stroke-width="2"/>
  <text x="120" y="473" fill="#ff69b4" font-size="11" font-weight="bold" text-anchor="middle">APP</text>
  <text x="120" y="487" fill="#aaa" font-size="9" text-anchor="middle">scan / connect</text>

  <!-- OS button (right shoulder) -->
  <rect x="230" y="455" width="100" height="40" rx="8" fill="#222" stroke="#888" stroke-width="2"/>
  <text x="280" y="473" fill="#888" font-size="11" font-weight="bold" text-anchor="middle">OS</text>
  <text x="280" y="487" fill="#aaa" font-size="9" text-anchor="middle">back / exit</text>

  <!-- Context menu hint -->
  <text x="200" y="510" fill="#555" font-size="9" text-anchor="middle">hold OS 1s = context menu (help, exit)</text>

  <!-- LED legend -->
  <rect x="90" y="525" width="220" height="35" rx="6" fill="#151520" stroke="#333" stroke-width="1"/>
  <circle cx="115" cy="542" r="5" fill="#00ff88"/>
  <text x="125" y="546" fill="#aaa" font-size="9">at temp</text>
  <circle cx="190" cy="542" r="5" fill="#ff8c00"/>
  <text x="200" y="546" fill="#aaa" font-size="9">heating</text>
  <circle cx="260" cy="542" r="5" fill="#4488ff"/>
  <text x="270" y="546" fill="#aaa" font-size="9">cooling</text>
  <text x="200" y="570" fill="#666" font-size="8" text-anchor="middle">LED ring shows temperature progress</text>
</svg>
